# File created by Blade
# Date/Time:  Tue Sep 23 19:18:47 2014
# Frame Rate: 120.000 fps
#------------------------------------------------------
:FULLY-SPECIFIED
:DEGREES
1402
root 1.257886 34.648230 -0.969869 130.330783 -5.334440 -38.950744
Spine -75.109095 -2.061910 27.752829
Head -16.486790 27.161745 38.213491
LeftShoulder -22.690294 29.236392 39.280713
LeftArm 119.431323 -70.907959 -127.569191
LeftForeArm 3.109856 -0.000000 103.928319
LeftHand -64.451599 0.000000 2.802920
LeftHandThumb1 -26.253704 0.000000 33.147579
RightShoulder -38.945187 -42.606931 -3.802343
RightArm 28.459643 50.689821 67.897479
RightForeArm 85.708627 -0.000000 -6.179839
RightHand 9.329925 -0.000000 17.954240
RightHandThumb1 -24.326973 -0.000000 -32.862282
LeftUpLeg -126.215315 33.967210 -15.704285
LeftLeg -3.645820 -0.000000 0.000000
LeftFoot 1.746241 5.150610 5.991579
LeftToeBase 2.789394 -0.000000 -0.000000
RightUpLeg 7.423268 0.589443 -30.393696
RightLeg 60.385141 -0.000000 -0.000000
RightFoot 32.824735 6.821756 2.661107
RightToeBase 36.096755 -0.000000 -0.000000
1403
root 1.260280 34.658403 -0.963943 130.261366 -5.373235 -39.091686
Spine -75.076248 -2.030680 27.661273
Head -16.250920 27.047774 38.308381
LeftShoulder -22.655667 29.340247 39.334223
LeftArm 118.837471 -71.060654 -127.095927
LeftForeArm 3.573621 -0.000000 103.861081
LeftHand -64.541079 -0.000000 3.043842
LeftHandThumb1 -26.253704 0.000000 33.147579
RightShoulder -38.949398 -42.658413 -3.807654
RightArm 28.329236 50.653581 67.860431
RightForeArm 85.793312 -0.000000 -6.295113
RightHand 9.283509 -0.000000 18.115152
RightHandThumb1 -24.326973 -0.000000 -32.862282
LeftUpLeg -126.146729 34.062316 -15.885152
LeftLeg -3.699467 -0.000000 0.000000
LeftFoot 1.558890 4.988959 5.350034
LeftToeBase 3.127983 -0.000000 -0.000000
RightUpLeg 7.392769 0.621157 -30.367349
RightLeg 60.460668 -0.000000 -0.000000
RightFoot 32.834252 6.815904 2.602686
RightToeBase 36.086383 -0.000000 -0.000000
1404
root 1.262022 34.674999 -0.954318 130.271888 -5.316915 -39.318249
Spine -75.062730 -1.862438 27.577492
Head -15.968160 26.956724 38.458194
LeftShoulder -22.694396 29.595533 39.372853
LeftArm 118.392730 -70.969681 -126.827669
LeftForeArm 4.151182 -0.000000 103.752028
LeftHand -64.513785 -0.000000 3.143871
LeftHandThumb1 -26.253704 0.000000 33.147579
RightShoulder -39.002186 -42.764500 -3.752686
RightArm 28.325454 50.702114 67.993314
RightForeArm 85.830474 -0.000000 -6.298951
RightHand 9.278297 -0.000000 18.077585
RightHandThumb1 -24.326973 -0.000000 -32.862282
LeftUpLeg -126.253113 34.243213 -16.185242
LeftLeg -3.717540 -0.000000 0.000000
LeftFoot 1.296924 4.701924 4.478242
LeftToeBase 3.538894 -0.000000 -0.000000
RightUpLeg 7.174180 0.721515 -30.312241
RightLeg 60.611603 -0.000000 -0.000000
RightFoot 32.766516 6.766021 2.664508
RightToeBase 36.149763 -0.000000 -0.000000
1405
root 1.274555 34.682911 -0.941071 130.235733 -5.459084 -39.263988
Spine -75.155156 -1.954940 27.573949
Head -15.754512 26.902099 38.485760
LeftShoulder -22.663014 29.688510 39.416692
LeftArm 117.739065 -71.129305 -126.390302
LeftForeArm 4.465871 -0.000000 103.628678
LeftHand -64.596635 -0.000000 3.367535
LeftHandThumb1 -26.253704 0.000000 33.147579
RightShoulder -39.016795 -42.773608 -3.770440
RightArm 28.224609 50.646891 67.959664
RightForeArm 85.952360 0.000000 -6.403531
RightHand 9.211130 -0.000000 18.144386
RightHandThumb1 -24.326973 -0.000000 -32.862282
LeftUpLeg -126.225175 34.012887 -16.434744
LeftLeg -3.777942 -0.000000 0.000000
LeftFoot 1.133851 4.308520 3.820670
LeftToeBase 3.931692 -0.000000 -0.000000
RightUpLeg 7.211299 0.476991 -30.288242
RightLeg 60.634480 -0.000000 -0.000000
RightFoot 32.791138 6.867767 2.631812
RightToeBase 36.142221 -0.000000 -0.000000
1406
root 1.290282 34.696057 -0.927913 130.276014 -5.578983 -39.307027
Spine -75.260162 -1.939845 27.482651
Head -15.587686 26.854553 38.481765
LeftShoulder -22.604261 29.707578 39.466185
LeftArm 116.919515 -71.318652 -125.736010
LeftForeArm 4.821211 0.000000 103.443505
LeftHand -64.606109 0.000000 3.697019
LeftHandThumb1 -26.253704 0.000000 33.147579
RightShoulder -39.082981 -42.798161 -3.738512
RightArm 28.160046 50.738665 68.070601
RightForeArm 86.041048 -0.000000 -6.370357
RightHand 9.132054 -0.000000 18.292959
RightHandThumb1 -24.326973 -0.000000 -32.862282
LeftUpLeg -126.294626 33.885310 -16.755285
LeftLeg -3.810054 -0.000000 0.000000
LeftFoot 0.966066 3.887292 3.016587
LeftToeBase 4.295427 -0.000000 -0.000000
RightUpLeg 7.095488 0.243421 -30.328374
RightLeg 60.732854 -0.000000 -0.000000
RightFoot 32.806570 6.899607 2.697678
RightToeBase 36.188414 -0.000000 -0.000000
1407
root 1.298689 34.709463 -0.916437 130.261499 -5.602994 -39.381920
Spine -75.291423 -1.883894 27.469257
Head -15.388708 26.820721 38.474996
LeftShoulder -22.582370 29.808751 39.517432
LeftArm 116.275026 -71.376865 -125.297928
LeftForeArm 5.416893 0.000000 103.237352
LeftHand -64.723472 -0.000000 3.836229
LeftHandThumb1 -26.253704 0.000000 33.147579
RightShoulder -39.156263 -42.887704 -3.653437
RightArm 28.164789 50.692135 68.170254
RightForeArm 86.229393 -0.000000 -6.412816
RightHand 9.171459 -0.000000 18.324906
RightHandThumb1 -24.326973 -0.000000 -32.862282
LeftUpLeg -126.339036 33.866883 -16.985377
LeftLeg -3.823729 -0.000000 0.000000
LeftFoot 0.847149 3.519344 2.490443
LeftToeBase 4.605219 -0.000000 -0.000000
RightUpLeg 6.957082 0.102050 -30.304928
RightLeg 60.865462 -0.000000 -0.000000
RightFoot 32.844318 6.926667 2.662163
RightToeBase 36.081515 -0.000000 -0.000000
1408
root 1.309068 34.723336 -0.902830 130.237999 -5.628797 -39.447292
Spine -75.316053 -1.815530 27.424824
Head -15.222882 26.764848 38.435429
LeftShoulder -22.555709 29.818596 39.601096
LeftArm 115.324211 -71.363814 -124.579888
LeftForeArm 6.084185 -0.000000 103.028326
LeftHand -64.797843 -0.000000 4.216063
LeftHandThumb1 -26.253704 0.000000 33.147579
RightShoulder -39.253037 -42.980054 -3.563161
RightArm 28.166912 50.790005 68.400035
RightForeArm 86.308264 -0.000000 -6.273304
RightHand 9.336685 -0.000000 18.207441
RightHandThumb1 -24.326973 -0.000000 -32.862282
LeftUpLeg -126.330556 33.883961 -17.136777
LeftLeg -3.838759 -0.000000 0.000000
LeftFoot 0.781060 3.197644 2.103658
LeftToeBase 4.762039 -0.000000 -0.000000
RightUpLeg 6.828250 -0.063463 -30.294642
RightLeg 61.015749 -0.000000 -0.000000
RightFoot 32.773709 6.872483 2.766191
RightToeBase 36.297326 -0.000000 -0.000000
